<?xml version="1.0" encoding="utf-8"?>
<!-- Generator: Adobe Adobe Illustrator 24.2.0, SVG Export Plug-In . SVG Version: 6.00 Build 0)  -->
<svg version="1.1" id="Layer_1" xmlns="http://www.w3.org/2000/svg" xmlns:xlink="http://www.w3.org/1999/xlink" x="0px" y="0px"
	 width="2048px" height="2048px" viewBox="0 0 2048 2048" style="enable-background:new 0 0 2048 2048;" xml:space="preserve">
<style type="text/css">
	.st0{fill:#66C485;}
	.st1{fill:#6DBF89;}
	.st2{fill:#1F2E24;}
	.st3{fill:#212F27;}
	.st4{fill:#BCBDC8;}
</style>
<g>
	<path class="st0" d="M1105.31,807.64c-12.43-16.77-24.56-33.32-36.92-49.69c-7.51-9.95-15.17-19.79-23.13-29.37
		c-8.41-10.12-17.21-19.92-25.95-29.75c-9.77-10.98-19.44-22.06-29.58-32.69c-10.67-11.19-21.61-22.16-32.86-32.76
		c-12.47-11.76-24.92-23.64-38.3-34.31c-23.83-19.01-47.86-37.83-72.73-55.43c-18.6-13.16-38.58-24.38-58.07-36.25
		c-8.27-5.04-16.83-9.59-25.35-14.22c-1.56-0.85-3.53-0.96-5.3-1.42c-0.09-0.51-0.19-1.02-0.28-1.52
		c6.44-2.01,12.77-4.48,19.33-5.95c24.67-5.51,49.31-11.21,74.16-15.78c13.98-2.57,28.31-3.48,42.54-4.4
		c16.74-1.08,33.54-2.1,50.3-1.84c31.47,0.48,62.7,3.6,93.71,9.52c46.27,8.83,90.3,23.96,132.12,45.41
		c29.56,15.16,57.49,33.04,82.52,54.98c15.85,13.89,31.52,28.1,46.06,43.33c22.59,23.67,41.41,50.31,57.92,78.58
		c18.06,30.94,32.41,63.55,43.23,97.67c7.92,24.97,13.35,50.54,17.41,76.46c5.44,34.69,6.99,69.58,5.59,104.54
		c-0.75,18.77-3.47,37.47-5.67,56.16c-4.18,35.49-12.98,70-24.42,103.73c-7.51,22.15-16.56,43.81-25.75,65.33
		c-12.68,29.67-28.79,57.55-46.67,84.38c-6.67,10.01-13.82,19.7-20.79,29.51c-0.34,0.48-1,0.73-2.04,1.47
		c-0.51-1.56-1.16-2.69-1.24-3.87c-0.77-11.42-1.02-22.88-2.23-34.25c-1.72-16.1-3.55-32.22-6.37-48.15
		c-3.64-20.57-7.88-41.07-12.68-61.41c-3.77-15.99-8.09-31.91-13.38-47.45c-9.8-28.82-19.85-57.59-30.99-85.91
		c-7.89-20.06-17.37-39.52-26.81-58.92c-9.51-19.55-19.51-38.89-29.92-57.98c-9.19-16.86-18.88-33.48-29-49.8
		c-10.77-17.38-22.3-34.29-33.54-51.37C1108.79,812.05,1107.09,810.03,1105.31,807.64z"/>
	<path class="st1" d="M1324.66,1493.52c0,0,46.09,0.12,80.59,0.18c31.32,0.06,62.65-0.09,93.98-0.07
		c22.59,0.02,45.18,0.21,67.78,0.29c45.56,0.17,91.13,0.01,136.68,0.58c28.79,0.36,57.57,1.73,86.35,2.81c0,0,14.38,0.12,14.63,5.03
		c0.15,2.86,2,6.02-55.18,8.03c-17.26,0.61-76.41,2.39-92.56,2.45c-59.86,0.2-119.72,0.18-179.58,0.37
		c-37.12,0.12-74.24,0.53-111.37,0.7c-24.7,0.11-48.89,0.52-72.68,0.52C1294.6,1513.59,1305.81,1512.4,1324.66,1493.52z"/>
	<path class="st1" d="M1794.82,1366.12c3.68,0.37,10.98,1.39,10.18,6.28c-1.05,6.36-69.04,6.39-110.68,7.46
		c-20.27,0.52-40.55,0.9-60.83,1.05c-55.94,0.42-111.89,0.65-167.83,1.05c-12.43,0.09-24.87,0.53-37.3,0.87
		c-1.72,0.05-1.69-0.34-4.69,0.03c4.73-6.12,11.53-15.34,16.08-22.08c0,0,1.09-0.13,7.31-0.04c54.44,0.76,108.88,0.9,163.32,1.51
		c34.05,0.38,68.09,1.28,102.14,1.88C1736.33,1364.54,1791.85,1365.82,1794.82,1366.12z"/>
	<path class="st1" d="M1555.42,1243.67c-16.22,0.02-31.46,0.02-47.41,0.02c0,0,4.37-9.26,8.36-18.72
		c0.62-1.47,52.92-0.05,93.68,0.27c24.76,0.19,49.53,0.4,74.29,0.83c33.62,0.59,67.24,1.3,100.85,2.24
		c5.63,0.16,11.28,1.5,16.78,2.88c1.32,0.33,3.11,3.31,2.77,4.53c-0.4,1.42-2.86,3.09-4.51,3.2c-10.29,0.66-20.6,1.02-30.91,1.27
		c-15.64,0.38-31.28,0.59-46.92,0.87c-33.27,0.61-66.54,1.27-99.81,1.8C1600.35,1243.22,1578.12,1243.39,1555.42,1243.67z"/>
</g>
<g>
	<path class="st2" d="M350.37,831.29c16.95-26.02,33.19-52.09,50.55-77.38c28.33-41.26,59.76-80.15,93.34-117.25
		c33.51-37.02,68.69-72.4,106.63-104.92c20.31-17.41,41.12-34.24,61.54-51.52c3.52-2.97,6.62-3.51,10.66-1.56
		c21.84,10.52,44.05,20.33,65.54,31.52c35.98,18.73,69.86,40.95,102.43,65.1c29.51,21.89,57.78,45.29,84.84,70.19
		c28.92,26.62,56.25,54.75,82.12,84.31c32.63,37.27,62.8,76.43,90.18,117.74c21.45,32.36,41.37,65.61,59.47,99.95
		c19.18,36.39,36.31,73.73,51.29,112.04c21.41,54.78,38.83,110.77,50.78,168.39c8.08,38.95,13.71,78.27,16.24,118
		c0.8,12.55,1.5,25.11,2.31,38.74c8.64-10.88,16.82-21.03,24.84-31.29c24.03-30.77,46.04-62.95,65.75-96.64
		c33.8-57.77,59.67-118.81,75.07-184.14c11.29-47.87,16.74-96.26,14.7-145.46c-3.75-90.57-29.21-174.86-73.62-253.58
		c-23.3-41.3-51.06-79.5-82.21-115.22c-10.82-12.41-22.25-24.3-33.39-36.43c-0.95-1.04-1.83-2.14-2.75-3.22
		c0.25-0.35,0.51-0.7,0.76-1.05c6.56,3.72,13.18,7.34,19.68,11.16c58.51,34.42,110.47,76.78,154.71,128.37
		c42.02,49,74.51,103.61,95.99,164.63c17.36,49.31,26.79,100.07,28.42,152.33c0.97,31.31-0.89,62.41-5.21,93.43
		c-7.9,56.74-24.22,110.99-47.24,163.34c-23.71,53.92-53.9,103.99-89.29,151c-31.5,41.84-66.8,80.23-104.71,116.34
		c-17.51,16.68-38.73,21.51-61.64,22.9c-34.73,2.1-68.58-3.01-101.94-12.18c-19.27-5.3-37.19-13.53-53.79-24.78
		c-7.34-4.98-13.02-11.57-16.78-19.09c-2.77-5.55-2.36-12.65-3.6-19.02c-9.8-50.31-18.81-100.79-29.69-150.86
		c-14.32-65.91-31.94-131.05-52.8-195.18c-17.24-53-35.49-105.73-54.99-157.94c-20.73-55.5-44.49-109.81-72.63-162.05
		c-15.32-28.43-32.15-55.92-53.38-80.46c-7.07-8.17-6.97-8.3-16.06-3.05c-37.35,21.58-72.97,45.74-107.29,71.84
		c-56.05,42.61-107.68,90.09-155.75,141.47c-36.5,39.01-70.69,79.93-102.46,122.92c-42.73,57.82-80.89,118.46-113.76,182.39
		c-27.55,53.58-50.9,108.96-67.28,167c-7.77,27.52-14.32,55.46-19.68,83.55c-4.17,21.85-5.62,44.21-8.32,66.34
		c-0.17,1.39-0.66,2.73-1,4.1c-0.52,0.06-1.03,0.13-1.55,0.19c-1.47-4.98-3.34-9.88-4.34-14.96c-4.84-24.47-9.99-48.89-14.01-73.5
		c-6.78-41.44-8.84-83.29-7.58-125.21c0.74-24.75,2.17-49.54,4.8-74.16c5.33-49.83,15.1-98.86,28.7-147.14
		c13.93-49.44,31.24-97.64,52.03-144.59C304.09,913.62,325.89,871.96,350.37,831.29z"/>
</g>
<g>
	<path class="st3" d="M234.69,1713.93c0-42.98,0-85.96,0-130.14c30,31.33,59.25,61.88,89.34,93.3c0-28.83,0-56.63,0-84.76
		c6.54,0,12.44,0,18.66,0c0,43,0,86.16,0,130.56c-4.85-5.11-8.94-9.47-13.09-13.77c-12.45-12.91-24.94-25.78-37.39-38.69
		c-4.7-4.87-9.31-9.84-13.98-14.73c-7.67-8.02-15.36-16.02-23.2-24.67c-3.68-1.36-1.9,1.48-1.9,2.44
		c-0.17,27.15-0.2,54.31-0.25,81.46c-5.62,0.02-11.23,0.05-17.38-0.23C234.87,1714.25,234.78,1714.09,234.69,1713.93z"/>
	<path class="st3" d="M1617.22,1711.18c-30.32,14.15-72.45,3.43-87.47-33.29c-12.33-30.17-1.84-66.62,32.99-82.41
		c31.27-14.18,68.17-3.77,85.25,31.25C1662.55,1656.57,1651.7,1694.37,1617.22,1711.18z M1620.48,1688.01
		c15.83-15.38,19.64-39.2,9.23-57.67c-10.24-18.17-30.8-26.92-51.21-21.81c-17.45,4.37-31.3,19.62-33.54,36.92
		c-2.78,21.46,5.6,39.01,23.37,48.93C1584.61,1703.47,1604.68,1701.18,1620.48,1688.01z"/>
	<path class="st3" d="M1695.88,1714.93c-5.62,0.02-11.23,0.05-17.38-0.23c-0.63-0.45-0.72-0.61-0.81-0.77c0-42.96,0-85.92,0-130.13
		c30.05,31.37,59.32,61.94,89.66,93.62c0-29.06,0-56.6,0.34-84.71c6.26-0.57,12.18-0.57,18.09-0.57c0.11,0.92,0.21,1.4,0.21,1.88
		c-0.02,42.6-0.05,85.19-0.08,127.79c-1.68-1.55-3.36-3.1-5.47-5.1c-1.72-1.68-3.01-2.9-4.3-4.13
		c-9.05-9.36-18.13-18.67-27.12-28.09c-4.67-4.89-9.06-10.05-13.77-14.91c-12.3-12.69-24.71-25.29-37.22-38.57
		c-3.68-1.37-1.9,1.48-1.9,2.44C1695.97,1660.62,1695.94,1687.78,1695.88,1714.93z"/>
	<path class="st3" d="M451.98,1713.98c-21.88,6.39-42.09,3.94-60.07-9.8c-13.47-10.29-21.28-23.99-23.83-41.15
		c-3.55-23.82,4.56-42.95,21.95-58.33c14.9-13.17,32.93-17.14,52.34-13.78c27.74,4.81,44.78,21.67,52.06,48.46
		c6.8,25.02-5.45,54.27-27.99,67.63C461.96,1709.66,457.08,1711.63,451.98,1713.98z M453.7,1694.36
		c19.88-11.88,28.37-33.62,21.64-55.41c-7.25-23.46-31.25-36.57-55.41-30.25c-23.68,6.19-37.98,30.46-32.52,55.22
		C393.91,1693.41,424.67,1707.86,453.7,1694.36z"/>
	<path class="st3" d="M1239.12,1592.08c15.74,0.63,31.61,0.22,47.19,2.15c24.59,3.04,44.24,25.31,46.81,49.98
		c1.62,15.53-0.3,29.97-8.98,43.22c-8.18,12.49-19.39,20.79-34.19,25.05c-0.7,0.18-0.85,0.3-0.92,0.53
		c-16.23,3.15-32.65,1.64-49.53,1.7c-0.63-0.45-0.72-0.61-0.81-0.77c0.03-39.98,0.06-79.96,0.18-120.64
		C1239.01,1592.43,1239.07,1592.25,1239.12,1592.08z M1312.44,1637.2c-8.16-23.14-31.73-29.87-54.95-26.97c0,28.93,0,57.85,0,87.21
		c13.05,0.16,25.84,0.58,37.4-6.5C1312.33,1680.27,1319.01,1660.43,1312.44,1637.2z"/>
	<path class="st3" d="M696.12,1592.08c5.62-0.03,11.23-0.06,17.37,0.41c0.53,14.65,0.51,28.8,0.59,42.95
		c0.01,1.48,0.64,2.95,0.98,4.43c17.27,0,34.54,0,52.27,0c0-16.01,0-31.74,0-47.67c6.37,0,12.28,0,18.41,0c0,40.92,0,81.63,0,122.57
		c-6.08,0-12,0-18.3,0c0-18.88,0-37.63,0-57.11c-17.44,0-34.5,0-52.39,0.37c-0.94,19.21-1.06,38.05-1.17,56.9
		c-5.62,0.02-11.23,0.05-17.38-0.23c-0.63-0.45-0.72-0.61-0.81-0.77c0.03-39.98,0.06-79.96,0.18-120.64
		C696.01,1592.43,696.07,1592.25,696.12,1592.08z"/>
	<path class="st3" d="M520.12,1592.08c13.57,0.64,27.24,0.42,40.66,2.19c12.1,1.59,20.61,8.92,25.4,20.78
		c4.08,10.12,2.7,19.66-1.33,28.94c-4.26,9.82-12.31,15.7-23.53,18.48c12.67,17.53,25.12,34.76,37.97,52.53
		c-7.22,0-13.54,0.21-19.83-0.14c-1.77-0.1-4.03-1.43-5.08-2.9c-10.58-14.74-20.95-29.64-31.41-44.47c-0.24-0.33-0.8-0.44-1.84-0.83
		c-1.23-0.64-1.83-1.09-3.08-2.04c0,8.97,0.02,17.2-0.01,25.44c-0.03,8.29-0.1,16.58-0.15,24.87c-5.62,0.02-11.23,0.05-17.38-0.23
		c-0.63-0.45-0.72-0.61-0.81-0.77c0.03-39.98,0.06-79.96,0.18-120.64C520.01,1592.43,520.07,1592.25,520.12,1592.08z M567.78,1639.1
		c5.43-11.14,2.69-22.34-6.78-26.7c-7.14-3.28-14.77-3.1-22.55-2.87c0,13.15,0,25.74,0,38.86
		C549.07,1648.15,559.75,1649.36,567.78,1639.1z"/>
	<path class="st3" d="M1008.32,1609.23c3.52-5.87,6.77-11.47,10.03-17.1c7.02,0,13.97,0,21.53,0c-5.67,9.49-11.1,18.62-16.58,27.73
		c-5.6,9.32-11.36,18.54-16.74,27.98c-0.89,1.56-0.95,4.48-0.08,6.02c11.26,19.72,22.76,39.31,34.19,58.94
		c0.31,0.54,0.42,1.2,0.75,2.2c-6.45,0-12.58,0.17-18.68-0.14c-1.27-0.07-2.83-1.71-3.6-3.01c-7.79-13.11-15.56-26.23-23.05-39.51
		c-2.28-4.05-3.3-2.87-5.1,0.17c-7.87,13.32-15.82,26.6-23.86,39.81c-0.71,1.17-2.29,2.5-3.52,2.55
		c-6.26,0.26-12.54,0.12-19.13,0.12c12.39-20.67,24.49-40.96,36.75-61.14c1.45-2.39,1.5-3.86,0.04-6.35
		c-10.73-18.28-21.21-36.7-32.01-55.52c6.58,0,12.84-0.2,19.07,0.15c1.46,0.08,3.32,1.77,4.15,3.21
		c7.06,12.25,13.92,24.61,21.43,37.98C998.9,1624.91,1003.48,1617.2,1008.32,1609.23z"/>
	<path class="st2" d="M932.96,1714.98c-21.97,0-43.94,0.01-66.45-0.28c-0.63-0.45-0.72-0.61-0.81-0.76
		c0.03-39.98,0.06-79.96,0.18-120.64c0.14-0.87,0.19-1.04,0.25-1.21c21.97-0.03,43.94-0.06,66.53,0.37
		c0.69,5.85,0.75,11.25,0.81,16.65c0,0-0.24,0.04-0.77,0.06c-16.4,0.02-32.26,0.02-48.65,0.02c0,9.63-0.02,18.7,0.04,27.77
		c0,0.63,0.64,1.26,0.99,1.89c15.53,0,31.05,0,47.05,0c0,5.76,0,11.01-0.52,16.77c-16.08,0.52-31.64,0.52-47.18,0.52
		c0,14.29,0,27.81,0,41.53c16.48,0,32.58,0,48.67,0c0,0,0.14,0.2,0.22,0.69C933.25,1704.22,933.1,1709.6,932.96,1714.98z"/>
	<path class="st2" d="M1146.7,1713.93c0.03-39.98,0.06-79.96,0.18-120.64c0.14-0.87,0.19-1.04,0.25-1.21
		c21.97-0.03,43.94-0.06,66.53,0.37c0.69,5.85,0.75,11.25,0.81,16.65c0,0-0.24,0.04-0.77,0.06c-16.4,0.02-32.26,0.02-48.65,0.02
		c0,9.63-0.02,18.7,0.04,27.77c0,0.63,0.64,1.26,0.99,1.89c15.53,0,31.05,0,47.05,0c0,5.76,0,11.01-0.52,16.77
		c-16.08,0.52-31.64,0.52-47.18,0.52c0,14.29,0,27.81,0,41.53c16.48,0,32.58,0,48.67,0c0,0,0.14,0.2,0.22,0.69
		c-0.06,5.87-0.21,11.25-0.36,16.63c-21.97,0-43.94,0.01-66.45-0.28C1146.88,1714.24,1146.79,1714.09,1146.7,1713.93z"/>
	<path class="st2" d="M1059.12,1592.08c14.05,0.64,28.22,0.33,42.11,2.17c14.45,1.91,24.5,14.97,25.84,29.67
		c1.31,14.29-2.35,26.48-15.04,33.96c-5.97,3.52-13.28,5-20.15,6.68c-3.79,0.93-7.94,0.36-12.83,0.45
		c-1.27,1.61-1.96,3.23-1.98,4.86c-0.13,15.02-0.15,30.03-0.2,45.05c-5.61,0.02-11.23,0.04-17.37-0.23
		c-0.63-0.45-0.72-0.61-0.81-0.76c0.03-39.98,0.06-79.96,0.18-120.64C1059.02,1592.43,1059.07,1592.26,1059.12,1592.08z
		 M1109.64,1625.9c-0.56-10.4-9.28-18.52-32.04-16.35c0,12.69,0,25.4,0,38.62c5.18-0.37,10.02-0.42,14.76-1.12
		C1104.48,1645.28,1109.65,1639.08,1109.64,1625.9z"/>
	<path class="st3" d="M603.99,1609.01c0-5.47,0-10.94,0-16.72c24.82,0,49.54,0,74.94,0c0,5.12,0,10.37-0.46,16.19
		c-9.27,0.74-18.07,0.93-26.87,1.11c-0.28,1.74-0.79,3.48-0.79,5.22c-0.05,31.45-0.04,62.9-0.04,94.35c0,1.79,0,3.58,0,5.6
		c-6.35,0-12.26,0-18.72,0c0-34.66,0-69.22-0.3-104.6C622.3,1609.23,613.14,1609.12,603.99,1609.01z"/>
	<path class="st3" d="M1392.99,1609.01c0-5.47,0-10.95,0-16.72c24.81,0,49.54,0,74.94,0c0,5.12,0,10.37-0.46,16.19
		c-9.27,0.74-18.07,0.93-26.87,1.11c-0.28,1.74-0.79,3.48-0.8,5.22c-0.05,31.45-0.04,62.9-0.04,94.35c0,1.79,0,3.58,0,5.6
		c-6.35,0-12.26,0-18.72,0c0-34.66,0-69.22-0.3-104.6C1411.3,1609.23,1402.15,1609.12,1392.99,1609.01z"/>
	<path class="st2" d="M1483.7,1713.93c0.03-39.98,0.06-79.96,0.18-120.64c0.14-0.87,0.19-1.04,0.25-1.21
		c5.61-0.03,11.23-0.05,17.36,0.41c0.48,41.14,0.44,81.78,0.39,122.43c-5.61,0.02-11.23,0.04-17.37-0.23
		C1483.88,1714.24,1483.79,1714.09,1483.7,1713.93z"/>
	<path class="st2" d="M1374.88,1714.93c-5.61,0.02-11.23,0.04-17.37-0.23c-0.63-0.45-0.72-0.61-0.81-0.76
		c0.03-39.98,0.06-79.96,0.18-120.64c0.14-0.87,0.19-1.04,0.25-1.21c5.61-0.03,11.23-0.05,17.36,0.41
		C1374.96,1633.64,1374.92,1674.28,1374.88,1714.93z"/>
	<path class="st4" d="M932.77,1697.38c-15.78,0.28-31.87,0.28-48.35,0.28c0-13.72,0-27.24,0-41.53c15.54,0,31.1,0,47.12-0.05
		c-1.21,0.31-2.89,0.98-4.57,1c-12.17,0.09-24.33,0.04-36.5,0.06c-1.62,0-3.25,0.14-5.15,0.23c0,13.2,0,26.09,0,39.74
		C901.23,1697.1,916.84,1697.1,932.77,1697.38z"/>
	<path class="st4" d="M1213.77,1697.38c-15.78,0.28-31.87,0.28-48.35,0.28c0-13.72,0-27.24,0-41.53c15.54,0,31.1,0,47.12-0.05
		c-1.21,0.31-2.89,0.98-4.57,0.99c-12.17,0.09-24.33,0.04-36.5,0.06c-1.62,0-3.25,0.14-5.15,0.23c0,13.2,0,26.09,0,39.74
		C1182.23,1697.1,1197.84,1697.1,1213.77,1697.38z"/>
	<path class="st4" d="M1502.25,1714.72c-0.33-40.43-0.28-81.08-0.31-122.18c0.32,0.71,1.04,1.87,1.04,3.04c0.06,39,0.04,78,0.02,117
		C1503.01,1713.22,1502.75,1713.86,1502.25,1714.72z"/>
	<path class="st4" d="M1375.25,1714.72c-0.33-40.43-0.28-81.08-0.31-122.18c0.32,0.71,1.04,1.87,1.04,3.04c0.06,39,0.04,78,0.02,117
		C1376.01,1713.22,1375.75,1713.86,1375.25,1714.72z"/>
	<path class="st4" d="M253.25,1714.72c-0.32-26.94-0.29-54.1-0.12-81.25c0.01-0.95-1.77-3.8,1.76-2.74
		c-0.29,2.08-0.82,3.81-0.82,5.54c-0.05,24.27-0.03,48.54-0.05,72.82C254.01,1710.89,253.76,1712.7,253.25,1714.72z"/>
	<path class="st4" d="M1696.25,1714.72c-0.32-26.94-0.29-54.1-0.12-81.25c0.01-0.95-1.77-3.8,1.76-2.74
		c-0.29,2.07-0.82,3.81-0.82,5.54c-0.05,24.27-0.03,48.54-0.05,72.82C1697.01,1710.89,1696.76,1712.7,1696.25,1714.72z"/>
	<path class="st4" d="M1166.06,1638.38c-0.33-0.17-0.97-0.8-0.97-1.43c-0.06-9.07-0.04-18.14-0.04-27.77c16.39,0,32.25,0,48.58,0.08
		c-1.28,0.34-3.03,0.81-4.78,0.82c-12.46,0.07-24.92,0.03-37.38,0.05c-1.62,0-3.25,0.14-5.41,0.25
		C1166.05,1619.74,1166.05,1628.83,1166.06,1638.38z"/>
	<path class="st4" d="M885.06,1638.38c-0.33-0.17-0.97-0.8-0.97-1.43c-0.06-9.07-0.04-18.14-0.04-27.77c16.39,0,32.25,0,48.58,0.08
		c-1.28,0.34-3.03,0.81-4.78,0.82c-12.46,0.07-24.92,0.03-37.38,0.04c-1.62,0-3.25,0.14-5.41,0.25
		C885.05,1619.74,885.05,1628.83,885.06,1638.38z"/>
	<path class="st4" d="M714.25,1714.72c-0.25-18.63-0.13-37.48,0.35-56.55c0.39,17.66,0.41,35.54,0.41,53.42
		C715.01,1712.56,714.76,1713.53,714.25,1714.72z"/>
	<path class="st4" d="M538.25,1714.72c-0.32-8.08-0.24-16.37-0.22-24.65c0.03-8.24,0.01-16.48,0.01-25.44
		c1.25,0.95,1.85,1.4,2.71,2.11c-0.4,3.08-1.56,5.89-1.63,8.73C538.79,1688.47,538.76,1701.49,538.25,1714.72z"/>
	<path class="st4" d="M1077.25,1714.72c-0.32-14.81-0.3-29.82-0.17-44.84c0.01-1.63,0.71-3.25,1.51-4.82
		c0.1,2.12-0.49,4.2-0.52,6.27C1077.86,1685.72,1077.76,1700.11,1077.25,1714.72z"/>
	<path class="st4" d="M715.05,1639.42c-0.33-1.02-0.96-2.49-0.97-3.97c-0.08-14.15-0.06-28.31-0.13-42.92
		c0.32,1.2,1.02,2.87,1.03,4.53C715.07,1611.03,715.04,1624.99,715.05,1639.42z"/>
	<path class="st4" d="M1393.22,1609.38c8.93-0.26,18.08-0.15,27.43,0.33C1411.71,1609.97,1402.57,1609.86,1393.22,1609.38z"/>
	<path class="st4" d="M604.22,1609.38c8.93-0.26,18.08-0.15,27.43,0.33C622.71,1609.97,613.57,1609.86,604.22,1609.38z"/>
	<path class="st4" d="M652.06,1609.77c8.33-0.37,17.14-0.55,26.39-0.83c-0.65,0.32-1.75,1.11-2.86,1.11
		C667.91,1610.11,660.22,1610.01,652.06,1609.77z"/>
	<path class="st4" d="M1441.06,1609.77c8.33-0.37,17.14-0.55,26.39-0.83c-0.65,0.32-1.75,1.11-2.86,1.11
		C1456.91,1610.11,1449.22,1610.01,1441.06,1609.77z"/>
	<path class="st4" d="M1214.36,1714.81c-0.26-5.21-0.12-10.59,0.07-16.44C1214.57,1703.48,1214.67,1709.06,1214.36,1714.81z"/>
	<path class="st4" d="M933.36,1714.81c-0.26-5.21-0.12-10.59,0.07-16.44C933.57,1703.48,933.67,1709.06,933.36,1714.81z"/>
	<path class="st4" d="M933.74,1608.78c-0.33-5.08-0.39-10.48-0.61-16.32C933.31,1597.5,933.66,1602.98,933.74,1608.78z"/>
	<path class="st4" d="M1214.74,1608.78c-0.33-5.08-0.39-10.48-0.61-16.32C1214.31,1597.5,1214.66,1602.98,1214.74,1608.78z"/>
	<path class="st4" d="M1677.53,1714.07c0.25,0.02,0.34,0.17,0.51,0.59C1677.87,1714.68,1677.62,1714.45,1677.53,1714.07z"/>
	<path class="st4" d="M1483.54,1714.07c0.25,0.02,0.34,0.17,0.51,0.59C1483.87,1714.68,1483.62,1714.44,1483.54,1714.07z"/>
	<path class="st4" d="M1356.54,1714.07c0.25,0.02,0.34,0.17,0.51,0.59C1356.87,1714.68,1356.62,1714.44,1356.54,1714.07z"/>
	<path class="st4" d="M1238.53,1714.07c0.25,0.02,0.34,0.17,0.51,0.59C1238.87,1714.68,1238.62,1714.45,1238.53,1714.07z"/>
	<path class="st4" d="M1146.54,1714.07c0.25,0.02,0.34,0.17,0.51,0.59C1146.87,1714.68,1146.62,1714.44,1146.54,1714.07z"/>
	<path class="st4" d="M1058.54,1714.07c0.25,0.02,0.34,0.17,0.51,0.59C1058.87,1714.68,1058.62,1714.44,1058.54,1714.07z"/>
	<path class="st4" d="M865.54,1714.07c0.25,0.02,0.34,0.17,0.51,0.59C865.87,1714.68,865.62,1714.44,865.54,1714.07z"/>
	<path class="st4" d="M695.53,1714.07c0.25,0.02,0.34,0.17,0.51,0.59C695.87,1714.68,695.62,1714.45,695.53,1714.07z"/>
	<path class="st4" d="M519.53,1714.07c0.25,0.02,0.34,0.17,0.51,0.59C519.87,1714.68,519.62,1714.45,519.53,1714.07z"/>
	<path class="st4" d="M234.53,1714.07c0.25,0.02,0.34,0.17,0.51,0.59C234.87,1714.68,234.62,1714.45,234.53,1714.07z"/>
	<path class="st4" d="M1146.91,1592.08c0.16,0.17,0.11,0.34-0.08,0.75c-0.24,0-0.38-0.23-0.44-0.47
		C1146.38,1592.3,1146.59,1592.18,1146.91,1592.08z"/>
	<path class="st4" d="M1483.91,1592.08c0.16,0.17,0.11,0.34-0.08,0.75c-0.24,0-0.38-0.23-0.44-0.47
		C1483.38,1592.3,1483.59,1592.18,1483.91,1592.08z"/>
	<path class="st4" d="M1356.91,1592.08c0.16,0.17,0.11,0.34-0.07,0.75c-0.24,0-0.38-0.23-0.44-0.47
		C1356.38,1592.3,1356.59,1592.18,1356.91,1592.08z"/>
	<path class="st4" d="M519.9,1592.08c0.16,0.17,0.11,0.34-0.08,0.75c-0.24,0-0.37-0.23-0.44-0.47
		C519.38,1592.3,519.58,1592.18,519.9,1592.08z"/>
	<path class="st4" d="M695.9,1592.08c0.16,0.17,0.11,0.34-0.08,0.75c-0.24,0-0.37-0.23-0.44-0.47
		C695.38,1592.3,695.58,1592.18,695.9,1592.08z"/>
	<path class="st4" d="M865.91,1592.08c0.16,0.17,0.11,0.34-0.08,0.75c-0.24,0-0.38-0.23-0.44-0.47
		C865.38,1592.3,865.59,1592.18,865.91,1592.08z"/>
	<path class="st4" d="M1238.9,1592.08c0.16,0.17,0.11,0.34-0.08,0.75c-0.24,0-0.37-0.23-0.44-0.47
		C1238.38,1592.3,1238.59,1592.18,1238.9,1592.08z"/>
	<path class="st4" d="M1058.91,1592.08c0.16,0.17,0.11,0.34-0.08,0.75c-0.24,0-0.38-0.23-0.44-0.47
		C1058.38,1592.3,1058.59,1592.18,1058.91,1592.08z"/>
</g>
</svg>
